#!OML:ASF H:\Pregnant\Project 1\Capture day 1\Session 1\femalepreg.ASF
:FULLY-SPECIFIED
:DEGREES
367
root 5.27778 15.5581 -3.00354 -159.321 -52.2956 -183.514
lowerback -13.7441 3.93144 -1.54967
upperback -3.22804 5.34756 -3.01628
thorax 4.4236 2.53205 -1.37077
lowerneck 2.20297 19.872 22.5477
upperneck 7.45783 28.0136 -14.9581
head 7.15199 13.9662 -5.2255
rclavicle 2.28851e-014 8.34896e-015
rhumerus -43.1296 -7.25354 -78.4021
rradius 40.3352
rwrist -6.81887
rhand -15.1571 -14.2634
rfingers 7.12502
rthumb 11.0132 -43.9545
lclavicle 2.28851e-014 8.34896e-015
lhumerus -23.055 -16.9294 71.309
lradius 34.5243
lwrist 44.3685
lhand -31.9808 -5.90085
lfingers 7.12502
lthumb -5.23019 24.0146
rfemur -50.0367 28.9012 -7.1447
rtibia 42.2142
rfoot -20.9707 4.62267
rtoes -25.6391
lfemur -27.8067 -34.2862 -9.46243
ltibia 29.9372
lfoot -21.3356 -21.4718
ltoes -0.439582
368
root 5.29882 15.5712 -3.11063 -159.766 -53.404 -182.89
lowerback -13.8111 3.99731 -1.0618
upperback -3.30822 5.36041 -2.85169
thorax 4.40509 2.54451 -1.46607
lowerneck 2.10667 19.8238 22.6471
upperneck 7.70123 27.9522 -14.9467
head 7.24772 13.9329 -5.22479
rclavicle 4.75592e-014 2.90226e-014
rhumerus -42.9081 -7.62319 -78.2316
rradius 39.0345
rwrist -6.39576
rhand -15.2336 -14.2823
rfingers 7.12502
rthumb 10.9394 -43.9773
lclavicle 4.75592e-014 2.90226e-014
lhumerus -23.0646 -15.729 71.0135
lradius 34.7345
lwrist 44.2407
lhand -32.4095 -6.1358
lfingers 7.12502
lthumb -5.6441 23.769
rfemur -49.4064 28.8667 -5.86654
rtibia 42.2824
rfoot -20.9576 3.77891
rtoes -25.4633
lfemur -28.1022 -34.6522 -8.37911
ltibia 30.2233
lfoot -21.2844 -21.5387
ltoes -0.886617
369
root 5.32063 15.5827 -3.21584 -160.285 -54.4677 -182.142
lowerback -13.9045 4.0668 -0.538023
upperback -3.38396 5.37136 -2.65875
thorax 4.40606 2.55557 -1.55036
lowerneck 1.9581 19.7932 22.7041
upperneck 7.94906 27.9076 -14.9454
head 7.35218 13.9035 -5.21407
rclavicle -7.78739e-014 6.75868e-015
rhumerus -42.6166 -7.99002 -78.0154
rradius 37.6851
rwrist -5.97312
rhand -15.2864 -14.3185
rfingers 7.12502
rthumb 10.8885 -44.0162
lclavicle -7.78739e-014 6.75868e-015
lhumerus -23.1384 -14.4948 70.7697
lradius 35.0175
lwrist 44.2062
lhand -32.7733 -6.36848
lfingers 7.12502
lthumb -5.99531 23.5267
rfemur -48.9319 28.9526 -4.64432
rtibia 42.3825
rfoot -20.8555 2.86759
rtoes -25.2971
lfemur -28.5199 -34.9365 -7.24731
ltibia 30.6788
lfoot -21.286 -21.4848
ltoes -1.54576
370
root 5.34319 15.592 -3.31925 -160.862 -55.4873 -181.292
lowerback -13.9896 4.15633 0.0335615
upperback -3.48442 5.39841 -2.47027
thorax 4.38177 2.57366 -1.66467
lowerneck 1.7695 19.7633 22.7258
upperneck 8.21531 27.8528 -14.9072
head 7.4566 13.8676 -5.18717
rclavicle 5.81942e-014 -1.45113e-014
rhumerus -42.3228 -8.40154 -77.7668
rradius 36.3092
rwrist -5.53359
rhand -15.3587 -14.3787
rfingers 7.12502
rthumb 10.8188 -44.0801
lclavicle 5.81942e-014 -1.45113e-014
lhumerus -23.2789 -13.2526 70.5541
lradius 35.3249
lwrist 44.2187
lhand -33.0211 -6.60805
lfingers 7.12502
lthumb -6.23456 23.2802
rfemur -48.5688 29.0846 -3.45173
rtibia 42.4879
rfoot -20.7058 1.93608
rtoes -25.1652
lfemur -29.0555 -35.1349 -6.08539
ltibia 31.2968
lfoot -21.3272 -21.3348
ltoes -2.38927
371
root 5.36653 15.6 -3.42083 -161.446 -56.4674 -180.405
lowerback -14.0721 4.2482 0.599875
upperback -3.60126 5.4262 -2.28222
thorax 4.33841 2.59045 -1.77733
lowerneck 1.54573 19.7381 22.6981
upperneck 8.4867 27.7948 -14.8408
head 7.55665 13.8281 -5.1448
rclavicle 3.32716e-014 -7.7526e-014
rhumerus -42.0177 -8.81799 -77.4911
rradius 34.9258
rwrist -5.07764
rhand -15.4473 -14.4828
rfingers 7.12502
rthumb 10.7333 -44.1886
lclavicle 3.32716e-014 -7.7526e-014
lhumerus -23.4858 -11.9943 70.3692
lradius 35.6558
lwrist 44.2925
lhand -33.1647 -6.82315
lfingers 7.12502
lthumb -6.37325 23.061
rfemur -48.2721 29.1993 -2.30415
rtibia 42.575
rfoot -20.5422 1.04697
rtoes -25.0011
lfemur -29.6843 -35.2559 -4.93394
ltibia 32.0287
lfoot -21.3694 -21.1281
ltoes -3.38279
372
root 5.3902 15.6082 -3.52097 -162.012 -57.4047 -179.532
lowerback -14.1468 4.33863 1.13573
upperback -3.73387 5.45446 -2.11311
thorax 4.27337 2.60541 -1.89397
lowerneck 1.3236 19.712 22.6819
upperneck 8.75094 27.7331 -14.7639
head 7.65365 13.7878 -5.10182
rclavicle 2.68359e-015 4.77083e-015
rhumerus -41.7207 -9.26569 -77.207
rradius 33.5529
rwrist -4.58571
rhand -15.552 -14.6379
rfingers 7.12502
rthumb 10.6323 -44.3489
lclavicle 2.68359e-015 4.77083e-015
lhumerus -23.7546 -10.7016 70.1755
lradius 35.9833
lwrist 44.3914
lhand -33.1984 -7.03008
lfingers 7.12502
lthumb -6.4057 22.8531
rfemur -48.0022 29.2753 -1.21672
rtibia 42.6246
rfoot -20.3823 0.251495
rtoes -24.7395
lfemur -30.3531 -35.3135 -3.82884
ltibia 32.8072
lfoot -21.3669 -20.8995
ltoes -4.47885
373
root 5.41423 15.6178 -3.61953 -162.503 -58.3077 -178.747
lowerback -14.2004 4.42018 1.60962
upperback -3.87772 5.47972 -1.97612
thorax 4.18235 2.61684 -2.01222
lowerneck 1.10929 19.6816 22.6775
upperneck 8.99059 27.6643 -14.686
head 7.74174 13.7451 -5.06297
rclavicle 1.49213e-014 5.56597e-015
rhumerus -41.4375 -9.75771 -76.9158
rradius 32.2084
rwrist -4.04953
rhand -15.6724 -14.8383
rfingers 7.12502
rthumb 10.5162 -44.5552
lclavicle 1.49213e-014 5.56597e-015
lhumerus -24.0761 -9.40307 69.9676
lradius 36.3053
lwrist 44.5305
lhand -33.1912 -7.20413
lfingers 7.12502
lthumb -6.39879 22.6792
rfemur -47.735 29.2829 -0.211604
rtibia 42.6333
rfoot -20.2367 -0.4313
rtoes -24.4088
lfemur -31.0275 -35.3343 -2.80785
ltibia 33.5664
lfoot -21.2684 -20.6921
ltoes -5.58092
374
root 5.43855 15.6294 -3.71615 -162.857 -59.1795 -178.128
lowerback -14.2274 4.48742 1.99378
upperback -4.02834 5.50024 -1.87614
thorax 4.065 2.62403 -2.12225
lowerneck 0.917697 19.6434 22.68
upperneck 9.18495 27.588 -14.6316
head 7.81483 13.6997 -5.03733
rclavicle -1.96673e-014 -2.5842e-015
rhumerus -41.1733 -10.2805 -76.6143
rradius 30.9195
rwrist -3.49441
rhand -15.8093 -15.0979
rfingers 7.12502
rthumb 10.3841 -44.8215
lclavicle -1.96673e-014 -2.5842e-015
lhumerus -24.4476 -8.12924 69.7739
lradius 36.6324
lwrist 44.7565
lhand -33.2273 -7.36649
lfingers 7.12502
lthumb -6.43363 22.5158
rfemur -47.463 29.197 0.686146
rtibia 42.6067
rfoot -20.1119 -0.998202
rtoes -24.0534
lfemur -31.6876 -35.3361 -1.90678
ltibia 34.2614
lfoot -21.0573 -20.5275
ltoes -6.69188
375
root 5.46368 15.6427 -3.8109 -163.067 -60.0255 -177.691
lowerback -14.2289 4.53881 2.28363
upperback -4.17055 5.51646 -1.81471
thorax 3.93767 2.62817 -2.22232
lowerneck 0.741058 19.5989 22.7019
upperneck 9.32266 27.5059 -14.6162
head 7.87481 13.6518 -5.02967
rclavicle 3.844e-014 1.5704e-014
rhumerus -40.9144 -10.8313 -76.3127
rradius 29.7076
rwrist -2.92356
rhand -15.9555 -15.427
rfingers 7.12502
rthumb 10.243 -45.1576
lclavicle 3.844e-014 1.5704e-014
lhumerus -24.8379 -6.8756 69.5835
lradius 36.9494
lwrist 45.0335
lhand -33.281 -7.51608
lfingers 7.12502
lthumb -6.4855 22.3646
rfemur -47.1794 29.0165 1.48697
rtibia 42.5571
rfoot -20.0124 -1.45992
rtoes -23.6813
lfemur -32.3168 -35.319 -1.12722
ltibia 34.8731
lfoot -20.7275 -20.4334
ltoes -7.76482
376
root 5.48942 15.6576 -3.90375 -163.125 -60.8563 -177.449
lowerback -14.2136 4.57011 2.47412
upperback -4.29107 5.52344 -1.77429
thorax 3.81646 2.62777 -2.29106
lowerneck 0.572129 19.5521 22.7101
upperneck 9.40616 27.4245 -14.6456
head 7.92103 13.6029 -5.03653
rclavicle 1.28837e-014 -3.12092e-014
rhumerus -40.648 -11.3584 -76.0081
rradius 28.5908
rwrist -2.38699
rhand -16.1183 -15.8226
rfingers 7.12502
rthumb 10.0861 -45.5609
lclavicle 1.28837e-014 -3.12092e-014
lhumerus -25.2491 -5.70433 69.4316
lradius 37.2804
lwrist 45.4126
lhand -33.3592 -7.62391
lfingers 7.12502
lthumb -6.56103 22.2545
rfemur -46.8766 28.7388 2.19876
rtibia 42.4955
rfoot -19.9431 -1.82002
rtoes -23.2572
lfemur -32.918 -35.2972 -0.466863
ltibia 35.4054
lfoot -20.2846 -20.4104
ltoes -8.78962
377
root 5.51606 15.674 -3.99474 -163.04 -61.6811 -177.386
lowerback -14.1865 4.58267 2.57615
upperback -4.38408 5.52133 -1.74829
thorax 3.71063 2.62362 -2.32695
lowerneck 0.403061 19.5004 22.6968
upperneck 9.43195 27.3391 -14.721
head 7.95183 13.55 -5.05791
rclavicle 1.60022e-014 -9.93923e-016
rhumerus -40.3689 -11.847 -75.7067
rradius 27.5836
rwrist -1.88712
rhand -16.2694 -16.274
rfingers 7.12502
rthumb 9.94025 -46.0193
lclavicle 1.60022e-014 -9.93923e-016
lhumerus -25.6778 -4.67459 69.3326
lradius 37.6401
lwrist 45.923
lhand -33.4533 -7.67038
lfingers 7.12502
lthumb -6.65185 22.2051
rfemur -46.5579 28.3709 2.83535
rtibia 42.428
rfoot -19.9012 -2.09448
rtoes -22.777
lfemur -33.5045 -35.2638 0.0904718
ltibia 35.8766
lfoot -19.7402 -20.4636
ltoes -9.72356
378
root 5.5435 15.6914 -4.08443 -162.858 -62.5074 -177.458
lowerback -14.134 4.58541 2.63301
upperback -4.45422 5.51657 -1.74674
thorax 3.61329 2.61919 -2.36451
lowerneck 0.2202 19.4428 22.6738
upperneck 9.41587 27.2424 -14.819
head 7.97116 13.4902 -5.08758
rclavicle 1.10878e-013 -5.46658e-015
rhumerus -40.0932 -12.3141 -75.4321
rradius 26.6942
rwrist -1.41721
rhand -16.4049 -16.7554
rfingers 7.12502
rthumb 9.80954 -46.5069
lclavicle 1.10878e-013 -5.46658e-015
lhumerus -26.0909 -3.7182 69.2531
lradius 37.9674
lwrist 46.4527
lhand -33.5234 -7.66186
lfingers 7.12502
lthumb -6.71946 22.2115
rfemur -46.2181 27.9492 3.42019
rtibia 42.3519
rfoot -19.8717 -2.32759
rtoes -22.2746
lfemur -34.08 -35.2182 0.570388
ltibia 36.312
lfoot -19.1088 -20.5809
ltoes -10.5182
379
root 5.57192 15.7096 -4.1729 -162.613 -63.3486 -177.62
lowerback -14.0555 4.58164 2.66499
upperback -4.50152 5.51002 -1.75539
thorax 3.5246 2.61507 -2.39996
lowerneck 0.0056528 19.3778 22.614
upperneck 9.3732 27.1298 -14.9281
head 7.98063 13.4198 -5.11834
rclavicle 3.84835e-014 -7.85199e-015
rhumerus -39.8171 -12.7165 -75.186
rradius 25.9298
rwrist -1.00203
rhand -16.5189 -17.2542
rfingers 7.12502
rthumb 9.69956 -47.0109
lclavicle 3.84835e-014 -7.85199e-015
lhumerus -26.4777 -2.84623 69.216
lradius 38.2522
lwrist 46.9963
lhand -33.5818 -7.59553
lfingers 7.12502
lthumb -6.77591 22.276
rfemur -45.8572 27.4868 3.97571
rtibia 42.2613
rfoot -19.8425 -2.53372
rtoes -21.7508
lfemur -34.6653 -35.1578 1.00298
ltibia 36.7415
lfoot -18.3985 -20.7552
ltoes -11.083
